<svg xmlns="http://www.w3.org/2000/svg" width="1200" height="630" viewBox="0 0 1200 630" role="img" aria-labelledby="title desc">
  <title id="title">TETR.IO戦績分析・TR推移レポート</title>
  <desc id="desc">公開データからTETR.IOの戦績を分析する非公式レポートツール</desc>
  <defs>
    <linearGradient id="background" x1="0" y1="0" x2="1" y2="1">
      <stop offset="0" stop-color="#0b1930"/>
      <stop offset="1" stop-color="#18345a"/>
    </linearGradient>
    <pattern id="grid" width="48" height="48" patternUnits="userSpaceOnUse">
      <path d="M48 0H0V48" fill="none" stroke="#9bb6d4" stroke-opacity=".11"/>
    </pattern>
  </defs>
  <rect width="1200" height="630" fill="url(#background)"/>
  <rect width="1200" height="630" fill="url(#grid)"/>
  <path d="M0 520C190 455 315 550 480 475S805 370 1200 450V630H0Z" fill="#0a1428" opacity=".62"/>
  <g opacity=".95">
    <rect x="788" y="92" width="74" height="74" rx="10" fill="#63d7c5"/>
    <rect x="862" y="166" width="74" height="74" rx="10" fill="#63d7c5"/>
    <rect x="936" y="240" width="74" height="74" rx="10" fill="#ffb36b"/>
    <rect x="1010" y="314" width="74" height="74" rx="10" fill="#ffb36b"/>
    <rect x="862" y="314" width="74" height="74" rx="10" fill="#63d7c5" opacity=".78"/>
  </g>
  <g fill="none" stroke="#63d7c5" stroke-linecap="round" stroke-linejoin="round" stroke-width="9" opacity=".9">
    <path d="M769 477l56-53 53 26 70-84 63 32 81-112"/>
  </g>
  <g fill="#f6f8fb" font-family="Arial, 'Noto Sans JP', sans-serif">
    <text x="86" y="164" font-size="31" font-weight="700" letter-spacing="4" fill="#63d7c5">LEAGUE REPORT</text>
    <text x="82" y="270" font-size="66" font-weight="800">TETR.IO戦績分析</text>
    <text x="86" y="348" font-size="54" font-weight="700">TR推移レポート</text>
    <text x="88" y="430" font-size="28" fill="#d4e0ee">公開データから、勝率・能力・セッション傾向を可視化</text>
    <text x="88" y="512" font-size="24" fill="#ffcf9c">戦績レポート for TETR.IO　／　非公式ツール</text>
  </g>
</svg>
